<svg width="24" height="24" viewBox="0 0 24 24" fill="none" xmlns="http://www.w3.org/2000/svg">
<g clip-path="url(#clip0_241_604)">
<path d="M3.75 12H0.75M14.25 12H9.75M23.25 12H20.25M9.75 3.25V20.75C9.75 20.75 9.75 21.75 8.75 21.75H4.75C4.75 21.75 3.75 21.75 3.75 20.75V3.25C3.75 3.25 3.75 2.25 4.75 2.25H8.75C8.75 2.25 9.75 2.25 9.75 3.25ZM20.25 6.25V17.75C20.25 17.75 20.25 18.75 19.25 18.75H15.25C15.25 18.75 14.25 18.75 14.25 17.75V6.25C14.25 6.25 14.25 5.25 15.25 5.25H19.25C19.25 5.25 20.25 5.25 20.25 6.25Z" stroke="#0D0D0D" stroke-width="1.5" stroke-linecap="round" stroke-linejoin="round"/>
</g>
<defs>
<clipPath id="clip0_241_604">
<rect width="24" height="24" fill="white"/>
</clipPath>
</defs>
</svg>
