<svg width="58" height="58" viewBox="0 0 58 58" fill="none" xmlns="http://www.w3.org/2000/svg">
<path d="M21.4479 51.8374C18.8701 50.9513 16.534 49.743 14.4396 48.2124C12.3451 46.6819 10.6237 44.8895 9.27517 42.8353C7.92667 40.7812 7.25161 38.586 7.25 36.2499V31.4166C7.25 30.9333 7.47153 30.5708 7.91458 30.3291C8.35764 30.0874 8.78056 30.1277 9.18333 30.4499L14.6812 34.5583C15.2451 35.0013 15.5569 35.5958 15.6165 36.3418C15.6761 37.0877 15.4449 37.7217 14.9229 38.2437L13.1708 39.9958C14.3389 42.0499 16.1917 43.8221 18.7292 45.3124C21.2667 46.8027 23.8847 47.7492 26.5833 48.152V26.5833H21.75C21.0653 26.5833 20.4917 26.3513 20.0293 25.8873C19.5669 25.4233 19.3349 24.8497 19.3333 24.1666C19.3317 23.4835 19.5637 22.9099 20.0293 22.4459C20.4949 21.9819 21.0685 21.7499 21.75 21.7499H26.5833V18.9103C25.1736 18.3867 24.016 17.5103 23.1106 16.281C22.2051 15.0517 21.7516 13.6525 21.75 12.0833C21.75 10.0694 22.4549 8.35756 23.8646 6.94784C25.2743 5.53811 26.9861 4.83325 29 4.83325C31.0139 4.83325 32.7257 5.53811 34.1354 6.94784C35.5451 8.35756 36.25 10.0694 36.25 12.0833C36.25 13.6541 35.7973 15.0541 34.8918 16.2834C33.9864 17.5127 32.828 18.3883 31.4167 18.9103V21.7499H36.25C36.9347 21.7499 37.5091 21.9819 37.9731 22.4459C38.4371 22.9099 38.6683 23.4835 38.6667 24.1666C38.6651 24.8497 38.4331 25.4241 37.9707 25.8897C37.5083 26.3553 36.9347 26.5865 36.25 26.5833H31.4167V48.152C34.1153 47.7492 36.7333 46.8027 39.2708 45.3124C41.8083 43.8221 43.6611 42.0499 44.8292 39.9958L43.0771 38.2437C42.5535 37.7201 42.3215 37.0861 42.3811 36.3418C42.4407 35.5974 42.7533 35.0029 43.3187 34.5583L48.8167 30.4499C49.2194 30.1277 49.6424 30.0874 50.0854 30.3291C50.5285 30.5708 50.75 30.9333 50.75 31.4166V36.2499C50.75 38.586 50.0749 40.7812 48.7248 42.8353C47.3747 44.8895 45.6533 46.6819 43.5604 48.2124C41.4676 49.743 39.1315 50.9513 36.5521 51.8374C33.9727 52.7235 31.4553 53.1666 29 53.1666C26.5447 53.1666 24.0273 52.7235 21.4479 51.8374ZM29 14.4999C29.6847 14.4999 30.2591 14.2687 30.7231 13.8063C31.1871 13.3439 31.4183 12.7696 31.4167 12.0833C31.4151 11.3969 31.1831 10.8234 30.7207 10.3626C30.2583 9.90181 29.6847 9.66981 29 9.66659C28.3153 9.66336 27.7417 9.89536 27.2793 10.3626C26.8169 10.8298 26.5849 11.4034 26.5833 12.0833C26.5817 12.7631 26.8137 13.3375 27.2793 13.8063C27.7449 14.2752 28.3185 14.5064 29 14.4999Z" fill="black"/>
</svg>
