<svg width="54" height="54" viewBox="0 0 54 54" fill="none" xmlns="http://www.w3.org/2000/svg">
<path d="M27 7.5C37.8539 7.5 46.5 15.2999 46.5 24.75C46.5 27.5348 45.3939 30.2057 43.4248 32.1748C41.4557 34.1439 38.7848 35.25 36 35.25H32.0176C30.9236 35.25 29.8742 35.6844 29.1006 36.458C28.327 37.2316 27.8926 38.281 27.8926 39.375C27.8926 40.4303 28.3088 41.3859 28.9268 42.1113L28.9365 42.123L28.9463 42.1338C29.3641 42.5865 29.625 43.1943 29.625 43.875C29.625 44.5712 29.3487 45.2392 28.8564 45.7314C28.3642 46.2237 27.6962 46.5 27 46.5C21.8283 46.5 16.8679 44.446 13.2109 40.7891C9.55398 37.1321 7.5 32.1717 7.5 27C7.5 21.8283 9.55398 16.8679 13.2109 13.2109C16.8679 9.55398 21.8283 7.5 27 7.5ZM14.625 19.5C13.531 19.5 12.4816 19.9344 11.708 20.708C10.9344 21.4816 10.5 22.531 10.5 23.625C10.5 24.719 10.9344 25.7684 11.708 26.542C12.4816 27.3156 13.531 27.75 14.625 27.75C15.719 27.75 16.7684 27.3156 17.542 26.542C18.3156 25.7684 18.75 24.719 18.75 23.625C18.75 22.531 18.3156 21.4816 17.542 20.708C16.7684 19.9344 15.719 19.5 14.625 19.5ZM39.375 19.5C38.281 19.5 37.2316 19.9344 36.458 20.708C35.6844 21.4816 35.25 22.531 35.25 23.625C35.25 24.719 35.6844 25.7684 36.458 26.542C37.2316 27.3156 38.281 27.75 39.375 27.75C40.469 27.75 41.5184 27.3156 42.292 26.542C43.0656 25.7684 43.5 24.719 43.5 23.625C43.5 22.531 43.0656 21.4816 42.292 20.708C41.5184 19.9344 40.469 19.5 39.375 19.5ZM21.375 10.5C20.281 10.5 19.2316 10.9344 18.458 11.708C17.6844 12.4816 17.25 13.531 17.25 14.625C17.25 15.719 17.6844 16.7684 18.458 17.542C19.2316 18.3156 20.281 18.75 21.375 18.75C22.469 18.75 23.5184 18.3156 24.292 17.542C25.0656 16.7684 25.5 15.719 25.5 14.625C25.5 13.531 25.0656 12.4816 24.292 11.708C23.5184 10.9344 22.469 10.5 21.375 10.5ZM32.625 10.5C31.531 10.5 30.4816 10.9344 29.708 11.708C28.9344 12.4816 28.5 13.531 28.5 14.625C28.5 15.719 28.9344 16.7684 29.708 17.542C30.4816 18.3156 31.531 18.75 32.625 18.75C33.719 18.75 34.7684 18.3156 35.542 17.542C36.3156 16.7684 36.75 15.719 36.75 14.625C36.75 13.531 36.3156 12.4816 35.542 11.708C34.7684 10.9344 33.719 10.5 32.625 10.5Z" stroke="black" stroke-width="1.5"/>
</svg>
