<svg width="58" height="58" viewBox="0 0 58 58" fill="none" xmlns="http://www.w3.org/2000/svg">
<path d="M29 50.75C33.3017 50.75 37.5069 49.4744 41.0837 47.0845C44.6604 44.6946 47.4482 41.2977 49.0944 37.3234C50.7406 33.3491 51.1713 28.9759 50.3321 24.7568C49.4929 20.5377 47.4214 16.6622 44.3796 13.6204C41.3378 10.5786 37.4623 8.50716 33.2432 7.66793C29.0241 6.8287 24.6509 7.25942 20.6766 8.90563C16.7023 10.5518 13.3055 13.3396 10.9155 16.9164C8.52562 20.4931 7.25 24.6983 7.25 29C7.25 32.48 8.06683 35.7667 9.52167 38.6836C10.6164 40.8852 9.09392 43.8553 8.51392 46.023C8.38542 46.5024 8.3854 47.0073 8.51385 47.4867C8.64231 47.9662 8.89471 48.4033 9.24568 48.7543C9.59666 49.1053 10.0338 49.3577 10.5133 49.4862C10.9927 49.6146 11.4976 49.6146 11.977 49.4861C14.1447 48.9061 17.1148 47.3836 19.3164 48.4808C22.3257 49.975 25.6402 50.7517 29 50.75Z" stroke="black" stroke-width="3.625" stroke-linecap="round" stroke-linejoin="round"/>
</svg>
