<svg width="54" height="54" viewBox="0 0 54 54" fill="none" xmlns="http://www.w3.org/2000/svg">
<path d="M36 50.0625V44.2541L41.2515 45.1395C41.7117 45.2171 42.1831 45.1983 42.6357 45.0845C43.0883 44.9706 43.5124 44.7642 43.8812 44.4781C44.25 44.192 44.5554 43.8325 44.7782 43.4224C45.001 43.0122 45.1362 42.5603 45.1755 42.0952L45.8212 34.4318C47.9025 33.9649 49.3987 33.2123 50.3696 32.5845C51.2404 32.022 51.3416 30.8858 50.7611 30.0263L46.0969 23.1221C45.5434 12.744 36.9529 4.5 26.4375 4.5V50.0625" stroke="black" stroke-width="1.5" stroke-linecap="round" stroke-linejoin="round"/>
<path d="M3.375 27C3.375 27.8951 3.73058 28.7536 4.36351 29.3865C4.99645 30.0194 5.85489 30.375 6.75 30.375C7.64511 30.375 8.50355 30.0194 9.13649 29.3865C9.76942 28.7536 10.125 27.8951 10.125 27C10.125 26.1049 9.76942 25.2464 9.13649 24.6135C8.50355 23.9806 7.64511 23.625 6.75 23.625C5.85489 23.625 4.99645 23.9806 4.36351 24.6135C3.73058 25.2464 3.375 26.1049 3.375 27ZM9 10.125C9 10.5682 9.0873 11.0071 9.25691 11.4166C9.42652 11.826 9.67512 12.1981 9.98851 12.5115C10.3019 12.8249 10.674 13.0735 11.0834 13.2431C11.4929 13.4127 11.9318 13.5 12.375 13.5C12.8182 13.5 13.2571 13.4127 13.6666 13.2431C14.076 13.0735 14.4481 12.8249 14.7615 12.5115C15.0749 12.1981 15.3235 11.826 15.4931 11.4166C15.6627 11.0071 15.75 10.5682 15.75 10.125C15.75 9.68179 15.6627 9.24292 15.4931 8.83344C15.3235 8.42397 15.0749 8.05191 14.7615 7.73851C14.4481 7.42512 14.076 7.17652 13.6666 7.00691C13.2571 6.8373 12.8182 6.75 12.375 6.75C11.9318 6.75 11.4929 6.8373 11.0834 7.00691C10.674 7.17652 10.3019 7.42512 9.98851 7.73851C9.67512 8.05191 9.42652 8.42397 9.25691 8.83344C9.0873 9.24292 9 9.68179 9 10.125ZM7.875 45C7.875 45.8951 8.23058 46.7535 8.86351 47.3865C9.49645 48.0194 10.3549 48.375 11.25 48.375C12.1451 48.375 13.0036 48.0194 13.6365 47.3865C14.2694 46.7535 14.625 45.8951 14.625 45C14.625 44.1049 14.2694 43.2465 13.6365 42.6135C13.0036 41.9806 12.1451 41.625 11.25 41.625C10.3549 41.625 9.49645 41.9806 8.86351 42.6135C8.23058 43.2465 7.875 44.1049 7.875 45Z" stroke="black" stroke-width="1.5"/>
<path d="M10.125 27H26.4375M26.4375 18H20.25L15.1875 12.9375M26.4375 37.125H19.125L14.0625 42.1875" stroke="black" stroke-width="1.5" stroke-linecap="round" stroke-linejoin="round"/>
</svg>
