<svg width="54" height="54" viewBox="0 0 54 54" fill="none" xmlns="http://www.w3.org/2000/svg">
<g clip-path="url(#clip0_183_467)">
<path fill-rule="evenodd" clip-rule="evenodd" d="M25.425 4.61246C26.4541 4.45633 27.5009 4.45633 28.53 4.61246C29.6888 4.79246 30.8025 5.24021 32.67 5.98946L48.8475 12.5145C50.094 13.0185 51.0975 13.4235 51.84 13.797C52.5533 14.1615 53.2665 14.6137 53.6333 15.327C53.883 15.8107 54.0068 16.3395 54.0068 16.8682V34.8682C54.0068 35.1666 53.8883 35.4527 53.6773 35.6637C53.4663 35.8747 53.1802 35.9932 52.8818 35.9932C52.5834 35.9932 52.2973 35.8747 52.0863 35.6637C51.8753 35.4527 51.7568 35.1666 51.7568 34.8682V19.9732C51.0278 20.3377 50.049 20.7315 48.8543 21.2152L47.2613 21.8565V34.8615C47.2613 39.1815 44.4713 42.2865 40.6913 44.2665C36.9113 46.2465 31.9163 47.2365 27.0113 47.2365C22.1063 47.2365 17.1338 46.2532 13.3538 44.2665C9.55128 42.2865 6.76128 39.159 6.76128 34.8615V21.8565L5.16603 21.213C3.91953 20.709 2.91603 20.304 2.17353 19.9282C1.46028 19.566 0.749285 19.1137 0.380285 18.3982C0.135493 17.9213 0.0078125 17.393 0.0078125 16.857C0.0078125 16.3209 0.135493 15.7926 0.380285 15.3157C0.747035 14.6047 1.46028 14.1525 2.17353 13.7902C2.91153 13.4145 3.91728 13.0072 5.16603 12.5055L21.321 5.98046C23.1818 5.22896 24.291 4.78121 25.461 4.60121L25.425 4.61246ZM28.17 6.83321C27.3723 6.70982 26.5603 6.70982 25.7625 6.83321C24.8918 6.96821 24.0345 7.30571 21.9825 8.13146L6.00753 14.5665C4.69578 15.0952 3.78453 15.4665 3.15003 15.7905C2.47503 16.1347 2.35128 16.3147 2.33553 16.344C2.25381 16.503 2.21118 16.6793 2.21118 16.8581C2.21118 17.0369 2.25381 17.2132 2.33553 17.3722C2.35128 17.4015 2.47503 17.5837 3.15003 17.9257C3.78903 18.252 4.70028 18.6232 6.00753 19.1497L21.9825 25.5847C24.0233 26.4082 24.885 26.748 25.7625 26.883C26.5603 27.0064 27.3723 27.0064 28.17 26.883C29.0408 26.748 29.898 26.4105 31.95 25.587L47.925 19.152C49.2368 18.6232 50.1503 18.252 50.7825 17.928C51.4575 17.5837 51.5813 17.4037 51.597 17.3745C51.6788 17.2154 51.7214 17.0392 51.7214 16.8603C51.7214 16.6815 51.6788 16.5053 51.597 16.3462C51.5813 16.317 51.4575 16.137 50.7825 15.7927C50.1435 15.4665 49.23 15.0975 47.925 14.5687L31.95 8.13371C29.9093 7.31021 29.0475 6.97271 28.17 6.83771V6.83321ZM32.6475 27.7357L44.9775 22.7632V34.8682C44.9775 38.0407 42.9795 40.5382 39.6 42.2932C36.225 44.0572 31.635 44.9932 26.9775 44.9932C22.32 44.9932 17.73 44.0505 14.355 42.2932C10.98 40.5337 8.97753 38.0407 8.97753 34.8682V22.7857L21.285 27.7582C23.1458 28.5097 24.255 28.9575 25.425 29.1375C26.451 29.295 27.4973 29.295 28.53 29.1375C29.6888 28.9575 30.8025 28.5097 32.67 27.7605L32.6475 27.7357Z" fill="black"/>
</g>
<defs>
<clipPath id="clip0_183_467">
<rect width="54" height="54" fill="white"/>
</clipPath>
</defs>
</svg>
