<svg width="108" height="138" viewBox="0 0 108 138" fill="none" xmlns="http://www.w3.org/2000/svg">
<path d="M66.7397 133.138C65.8447 132.181 65.2371 130.991 64.9864 129.704C64.7356 128.418 64.8517 127.087 65.3214 125.864C66.5611 122.786 66.8429 119.374 66.1504 116.103C65.6167 113.772 64.6269 111.571 63.2381 109.625C61.8734 107.699 60.1281 106.074 58.1101 104.85C51.2424 100.619 46.094 94.0931 43.5769 86.4291C30.6879 107.016 37.3235 117.411 45.239 126.38C46.1645 127.432 46.7231 128.757 46.8305 130.155C46.938 131.552 46.5886 132.947 45.835 134.129C45.0635 135.324 43.9679 136.276 42.6762 136.873C41.3987 137.457 39.9787 137.658 38.5893 137.45C28.8846 136.01 19.5442 132.422 12.8384 125.948C9.04693 122.357 5.98512 118.067 3.82135 113.314C1.63471 108.52 0.383268 103.353 0.134204 98.0897C0.134204 98.0897 -2.96586 77.0425 20.6233 53.9581C20.6233 53.9581 48.401 25.5921 36.1901 7.64886C35.7175 6.75456 35.5083 5.74458 35.5867 4.73616C35.6651 3.72773 36.0279 2.76221 36.6329 1.95167C37.2212 1.15901 38.0381 0.565599 38.9739 0.25134C39.9096 -0.0629185 40.9191 -0.0829381 41.8666 0.193976L43.1666 0.576042C55.1852 6.70244 65.0308 16.3744 71.3701 28.2822C77.4744 39.9564 78.7493 54.1045 76.5488 67.0151C79.1079 64.249 81.1579 61.0363 82.6069 57.5067L82.8051 56.934C84.1264 52.68 89.5977 53.4902 91.8554 55.9837C92.7029 57.092 114.197 82.8725 106.17 107.046C103.106 114.432 98.2242 120.923 91.9789 125.917C86.7475 130.139 80.7555 133.319 74.327 135.286C72.9993 135.698 71.5803 135.715 70.2431 135.335C68.8939 134.947 67.6804 134.189 66.7405 133.147L66.7397 133.138ZM45.4036 67.8882C46.1655 67.3922 47.0862 67.2008 47.9828 67.3521C48.8793 67.5034 49.6862 67.9863 50.2432 68.7049C50.6344 69.1884 50.9016 69.7354 51.0447 70.3458L51.7086 73.3073C52.2865 77.6801 52.6595 82.271 54.7589 86.3296C56.9287 90.4944 60.0314 94.0704 63.7949 96.7364C68.5605 99.2764 72.4323 103.217 74.8877 108.027C77.2254 112.696 77.9807 118.048 77.0184 123.187C81.2553 121.412 85.1057 118.829 88.3544 115.581L89.1723 114.778C91.8377 112.132 93.9417 108.94 95.3461 105.397C96.76 101.862 97.4558 98.0558 97.3777 94.2171C97.1211 85.3625 93.3059 76.8025 87.9127 69.3501C86.069 72.639 83.3536 75.307 80.0924 77.0381C78.0545 78.1362 75.856 78.9027 73.5789 79.2867C72.2733 79.4888 70.9371 79.3118 69.7291 78.7768C68.5025 78.2235 67.4566 77.3356 66.7115 76.215C66.0996 75.3118 65.7022 74.2807 65.5496 73.2004C65.3971 72.1201 65.4935 71.0193 65.8315 69.982C68.5972 61.3067 68.8396 51.9467 66.5044 43.0939C63.7752 32.97 57.97 23.9432 49.8906 17.2601C50.3035 36.3213 32.5173 55.7503 28.8837 59.9152C28.3168 60.5515 27.7266 61.1667 27.1141 61.7594C7.8409 80.5638 10.6894 95.8049 10.7522 96.4833C10.9145 102.627 12.8472 108.593 16.3182 113.664C19.9656 118.914 24.8974 123.065 30.5966 125.682C23.0826 112.536 21.558 96.0635 42.4144 70.313L45.4106 67.8703L45.4036 67.8882Z" fill="#D6180D"/>
</svg>
