<svg width="71" height="71" viewBox="0 0 71 71" fill="none" xmlns="http://www.w3.org/2000/svg">
<g clip-path="url(#clip0_183_473)">
<path d="M6.23269 34.2275C6.52969 34.1566 6.933 33.7904 7.04944 33.4563L7.64007 32.0321C7.77338 31.7587 7.74807 31.217 7.58944 30.9571L5.232 27.1029C4.72744 26.276 4.83207 25.1049 5.51044 24.3455L7.50675 22.3509C8.202 21.7333 9.42882 21.6219 10.2287 22.1062L14.0829 24.4636C14.3243 24.6121 14.8423 24.6644 15.2051 24.494L16.6277 23.9068C16.9146 23.8072 17.2808 23.4056 17.3516 23.1086L18.4097 18.7143C18.6341 17.7828 19.5234 17.0167 20.4786 16.9289C20.4786 16.9289 21.0641 16.8749 21.9416 16.8749C22.8191 16.8749 23.4047 16.9289 23.4064 16.9289C23.8902 16.9851 24.346 17.1853 24.7146 17.5037C25.0832 17.822 25.3476 18.2438 25.4736 18.7143L26.5333 23.1086C26.6042 23.4039 26.9687 23.8072 27.3028 23.9236L28.7271 24.5143C28.9785 24.6374 29.5607 24.6121 29.802 24.4636L33.6563 22.1062C33.9954 21.8986 34.4004 21.7889 34.8308 21.7889C35.4129 21.7889 35.9766 21.9931 36.4136 22.3829L38.4083 24.3793C38.7238 24.7528 38.9166 25.2146 38.9604 25.7016C39.0041 26.1886 38.8968 26.6773 38.6529 27.1012L36.2955 30.9554C36.1369 31.2153 36.1116 31.757 36.2651 32.0776L36.8524 33.5002C36.9519 33.7871 37.3536 34.1533 37.6506 34.2241L42.0448 35.2822C42.5145 35.4103 42.9352 35.6756 43.2532 36.0442C43.5713 36.4127 43.7722 36.8677 43.8302 37.3511C43.8302 37.3511 43.8842 37.9366 43.8842 38.8141C43.8842 39.6916 43.8302 40.2772 43.8302 40.2789C43.7722 40.7622 43.5713 41.2172 43.2532 41.5858C42.9352 41.9543 42.5145 42.2196 42.0448 42.3478L37.6523 43.4041C37.3553 43.475 36.9519 43.8412 36.8355 44.1753L36.2449 45.5996C36.1116 45.8729 36.1369 46.4146 36.2955 46.6745L38.6529 50.5288C39.1575 51.3556 39.0529 52.5268 38.3745 53.2861L36.3782 55.2808C35.6813 55.9001 34.4528 56.0114 33.6563 55.5254L29.802 53.168C29.5607 53.0212 29.0409 52.9655 28.6798 53.1376L27.2573 53.7249C26.9704 53.8244 26.6059 54.2261 26.535 54.5231L25.4753 58.9173C25.3471 59.387 25.0818 59.8077 24.7133 60.1257C24.3447 60.4438 23.8897 60.6447 23.4064 60.7027C23.403 60.701 22.8174 60.755 21.9399 60.755C21.0624 60.755 20.4769 60.701 20.4752 60.701C19.9919 60.643 19.5368 60.4421 19.1683 60.124C18.7997 59.806 18.5344 59.3853 18.4063 58.9156L17.3499 54.5248C17.2791 54.2278 16.9129 53.8244 16.5788 53.708L15.1545 53.1174C14.9014 52.9942 14.3209 53.0212 14.0796 53.168L10.227 55.5254C9.42882 56.0114 8.22732 55.9271 7.46963 55.2487L5.475 53.2524C5.15946 52.8788 4.96668 52.4171 4.92289 51.93C4.87911 51.443 4.98646 50.9543 5.23032 50.5304L7.58775 46.6762C7.74638 46.4163 7.77169 45.8746 7.61813 45.554L7.03088 44.1314C6.93132 43.8446 6.52969 43.4784 6.23269 43.4075L1.83844 42.3494C1.36881 42.2213 0.948068 41.956 0.630027 41.5875C0.311987 41.2189 0.111103 40.7639 0.0530664 40.2806C0.0564414 40.2806 0.00244141 39.695 0.00244141 38.8175C0.00244141 37.94 0.0564414 37.3544 0.0564414 37.3528C0.114478 36.8694 0.315362 36.4144 0.633402 36.0459C0.951443 35.6773 1.37218 35.412 1.84182 35.2839L6.23269 34.2275ZM1.68994 38.8175C1.68994 39.5904 1.7355 40.1118 1.73719 40.1287C1.76467 40.2598 1.82489 40.3817 1.91224 40.4832C1.99958 40.5847 2.1112 40.6625 2.23669 40.7092L6.63094 41.7673C7.48313 41.9731 8.34207 42.7528 8.60869 43.5341L9.15544 44.8621C9.54019 45.6502 9.48619 46.8078 9.02888 47.5571L6.67144 51.4096C6.55838 51.5969 6.59044 51.9682 6.70182 52.0948L8.62725 54.0219C8.78082 54.1586 9.17232 54.1923 9.34782 54.086L13.2021 51.7286C13.9328 51.2814 15.1849 51.251 15.8481 51.5801L17.1778 52.1302C18.0064 52.4154 18.786 53.2743 18.9919 54.1282L20.0483 58.5208C20.0947 58.6466 20.1724 58.7585 20.2739 58.8462C20.3754 58.9338 20.4975 58.9943 20.6288 59.0219C20.6456 59.0219 21.1671 59.0675 21.9399 59.0675C22.7128 59.0675 23.2343 59.0219 23.2511 59.0203C23.3822 58.9928 23.5042 58.9326 23.6057 58.8452C23.7072 58.7579 23.7849 58.6462 23.8316 58.5208L24.8897 54.1282C25.0956 53.276 25.8735 52.4154 26.6565 52.1488L27.9846 51.602C28.7558 51.224 29.9505 51.2831 30.6795 51.7286L34.5321 54.086C34.7076 54.1923 35.1227 54.1366 35.2172 54.0556L37.1443 52.1302C37.2894 51.9665 37.3215 51.5969 37.2084 51.4096L34.851 47.5554C34.3937 46.8078 34.3397 45.6485 34.7025 44.9094L35.2526 43.5796C35.5378 42.7511 36.3968 41.9714 37.2506 41.7656L41.6432 40.7092C41.769 40.6627 41.881 40.5851 41.9686 40.4835C42.0563 40.382 42.1167 40.2599 42.1444 40.1287C42.1444 40.1118 42.1899 39.5904 42.1899 38.8175C42.1899 38.0446 42.1444 37.5232 42.1427 37.5063C42.1152 37.3753 42.055 37.2533 41.9676 37.1518C41.8803 37.0503 41.7687 36.9725 41.6432 36.9258L37.2489 35.8678C36.3968 35.6619 35.5378 34.8823 35.2712 34.1009L34.7244 32.7729C34.3397 31.9848 34.3937 30.8272 34.851 30.0779L37.2084 26.2254C37.3215 26.0381 37.2894 25.6668 37.1781 25.5403L35.2526 23.6131C35.1305 23.5222 34.9813 23.4752 34.8291 23.4798C34.7263 23.4768 34.6245 23.5006 34.5338 23.549L30.6795 25.9064C29.9505 26.3519 28.6984 26.384 28.0335 26.0549L26.7038 25.5048C25.8752 25.2196 25.0956 24.359 24.8914 23.5068L23.8333 19.1143C23.7868 18.9884 23.7092 18.8765 23.6077 18.7888C23.5061 18.7012 23.3841 18.6407 23.2528 18.6131C23.2343 18.6131 22.7128 18.5675 21.9399 18.5675C21.1671 18.5675 20.6456 18.6131 20.6288 18.6148C20.4977 18.6422 20.3757 18.7025 20.2742 18.7898C20.1727 18.8771 20.095 18.9888 20.0483 19.1143L18.9902 23.5085C18.7843 24.3607 18.0047 25.2196 17.2234 25.4863L15.8953 26.033C15.5183 26.2105 15.1053 26.2983 14.6888 26.2895C14.1336 26.2895 13.6054 26.1528 13.2004 25.9048L9.34782 23.5473C9.17232 23.441 8.7555 23.4984 8.66269 23.5777L6.73557 25.5048C6.59044 25.6685 6.55838 26.0381 6.67144 26.2254L9.02888 30.0796C9.48619 30.8272 9.54019 31.9865 9.17738 32.7256L8.62725 34.0554C8.34207 34.8839 7.48313 35.6636 6.62925 35.8694L2.23669 36.9258C2.11088 36.9723 1.99892 37.0499 1.91127 37.1515C1.82362 37.253 1.76315 37.3751 1.7355 37.5063C1.7355 37.5232 1.68994 38.0446 1.68994 38.8175Z" fill="black"/>
<path d="M21.9399 29.5362C27.0581 29.5362 31.2212 33.6992 31.2212 38.8174C31.2212 43.9356 27.0581 48.0987 21.9399 48.0987C16.8218 48.0987 12.6587 43.9356 12.6587 38.8174C12.6587 33.6992 16.8218 29.5362 21.9399 29.5362ZM21.9399 46.4112C26.1266 46.4112 29.5337 43.0041 29.5337 38.8174C29.5337 34.6307 26.1266 31.2237 21.9399 31.2237C17.7533 31.2237 14.3462 34.6307 14.3462 38.8174C14.3462 43.0041 17.7533 46.4112 21.9399 46.4112ZM46.3699 61.9126C46.2569 61.7849 46.1018 61.7022 45.9328 61.6797L42.7924 61.7101C42.4048 61.6998 42.029 61.5746 41.7127 61.3505C41.3963 61.1264 41.1537 60.8134 41.0154 60.4512C41.0154 60.4512 40.8771 60.058 40.7252 59.4556C40.5733 58.8531 40.5092 58.4414 40.5092 58.4414C40.3911 57.6803 40.8146 56.8382 41.4947 56.4822L44.2639 55.0309C44.4117 54.9179 44.5117 54.7535 44.544 54.5702L44.7009 53.4987C44.7103 53.3295 44.6602 53.1623 44.5592 53.0262L42.3283 50.8392C41.7698 50.2924 41.6229 49.3576 42.0077 48.6235L43.0185 46.936C43.4454 46.3082 44.3702 45.9876 45.0958 46.2137L48.1738 47.1554C48.3409 47.1554 48.5079 47.0912 48.6024 47.0153L49.4715 46.3741C49.598 46.2602 49.6804 46.1055 49.7044 45.937L49.674 42.8117C49.6673 42.0422 50.2073 41.2711 50.9329 41.0179C50.9329 41.0179 51.3261 40.8796 51.9285 40.7277C52.5309 40.5758 52.9427 40.5117 52.9427 40.5117C52.9866 40.5049 53.1621 40.4914 53.2059 40.4914C53.552 40.4957 53.8908 40.5909 54.1884 40.7674C54.4861 40.944 54.7321 41.1956 54.9019 41.4972L56.3531 44.2664C56.4662 44.4142 56.6306 44.5141 56.8138 44.5465L57.9326 44.7085C58.1014 44.7085 58.3005 44.6207 58.3562 44.5634L60.5432 42.3325C61.0748 41.7891 61.9708 41.5951 62.7589 42.0119L64.4447 43.0227C65.0893 43.4614 65.4015 44.3558 65.1686 45.1L64.2371 48.0818C64.2117 48.2672 64.2589 48.4552 64.3688 48.6066L65.01 49.4757C65.1229 49.6033 65.2781 49.686 65.4471 49.7086L68.5875 49.6782C68.9751 49.6885 69.3508 49.8136 69.6672 50.0377C69.9835 50.2618 70.2262 50.5748 70.3644 50.9371C70.3644 50.9371 70.5028 51.3302 70.6547 51.9327C70.8066 52.5351 70.8707 52.9469 70.8707 52.9469C70.9208 53.3345 70.8537 53.7283 70.6781 54.0774C70.5024 54.4266 70.2263 54.7152 69.8852 54.9061L67.116 56.3573C66.9682 56.4703 66.8682 56.6348 66.8359 56.818L66.6806 57.8862C66.6712 58.0554 66.7214 58.2226 66.8224 58.3587L69.0533 60.5457C69.6118 61.0924 69.7586 62.0273 69.3739 62.7614L68.3631 64.4489C67.9361 65.0749 67.0131 65.3989 66.2858 65.1728L63.2061 64.2312C63.0519 64.2312 62.9018 64.2802 62.7774 64.3712L61.9084 65.0125C61.7819 65.1264 61.6995 65.2811 61.6755 65.4496L61.7059 68.5748C61.6989 68.9653 61.5753 69.3447 61.351 69.6644C61.1267 69.9841 60.8118 70.2293 60.447 70.3686C60.447 70.3686 60.0538 70.507 59.4514 70.6589C58.8489 70.8107 58.4372 70.8749 58.4372 70.8749C58.3496 70.8833 58.2618 70.8895 58.1739 70.8934C57.8279 70.8891 57.4891 70.7939 57.1914 70.6174C56.8938 70.4409 56.6478 70.1892 56.478 69.8877L55.0268 67.1185C54.9137 66.9707 54.7493 66.8707 54.5661 66.8384L53.4473 66.6781C53.2945 66.6817 53.1466 66.7324 53.0237 66.8232L50.8367 69.0541C50.5511 69.3389 50.1812 69.524 49.782 69.5818C49.3828 69.6396 48.9756 69.5669 48.621 69.3747L46.9335 68.3656C46.2889 67.9268 45.9767 67.0324 46.2096 66.2882L47.1411 63.3064C47.1665 63.1211 47.1193 62.933 47.0094 62.7816L46.3699 61.9126ZM47.7536 60.9473L48.3324 61.7337C48.7847 62.2686 48.9602 63.1411 48.7509 63.8076L47.8211 66.7877C47.8127 66.835 47.8498 66.9413 47.8414 66.943L49.4411 67.9015L49.6318 67.8728L51.8205 65.6419C52.2086 65.2471 52.8482 64.9906 53.4489 64.9906C53.5645 64.9894 53.6798 65.0002 53.7932 65.0226L54.7635 65.1661C55.1277 65.2112 55.4763 65.3405 55.7818 65.5438C56.0873 65.747 56.3413 66.0187 56.5236 66.3372L57.9731 69.1047C58.0267 69.1614 58.0983 69.1977 58.1756 69.2076C58.1942 69.2059 58.5384 69.1486 59.0413 69.0237C59.5425 68.8971 59.8733 68.7841 59.8884 68.7773C59.9408 68.7554 60.0167 68.6457 60.0201 68.5917L59.9897 65.4664C59.9829 64.7678 60.4031 63.9831 60.9465 63.6287L61.7312 63.0499C62.2526 62.6095 63.147 62.4239 63.8051 62.6314L66.7988 63.5629C66.8696 63.5629 66.9489 63.5191 66.9388 63.541L67.8973 61.9412C67.9159 61.8974 67.8973 61.786 67.8686 61.7506L65.6378 59.5619C65.1399 59.0708 64.8818 58.2203 65.0184 57.5892L65.1602 56.6189C65.2209 55.9236 65.7137 55.1828 66.333 54.8588L69.1005 53.4092C69.1572 53.3557 69.1936 53.2841 69.2034 53.2067C69.1548 52.9156 69.0934 52.6268 69.0195 52.3411C68.9497 52.0552 68.8675 51.7726 68.7731 51.4939C68.7512 51.4416 68.6415 51.3657 68.5875 51.3623L65.4454 51.3927C64.7518 51.3927 63.9756 50.9725 63.6246 50.4359L63.0474 49.6512C62.8201 49.3624 62.6638 49.0243 62.5911 48.6641C62.5184 48.3038 62.5314 47.9316 62.6289 47.5772L63.5588 44.5971C63.5672 44.5516 63.5301 44.4436 63.5385 44.4419L61.9388 43.4834L61.7481 43.5121L59.5594 45.7429C59.1713 46.1378 58.5317 46.3943 57.9309 46.3943C57.8154 46.3954 57.7 46.3847 57.5867 46.3622L56.6164 46.2188C56.2522 46.1737 55.9035 46.0444 55.598 45.8411C55.2925 45.6378 55.0386 45.3662 54.8563 45.0477L53.4068 42.2802C53.3532 42.2235 53.2816 42.1871 53.2043 42.1772C52.9132 42.2259 52.6243 42.2873 52.3386 42.3612C52.0527 42.431 51.7701 42.5132 51.4914 42.6076C51.4391 42.6295 51.3632 42.7392 51.3598 42.7932L51.3902 45.9184C51.3969 46.6171 50.9768 47.4017 50.4334 47.7561L49.6487 48.3349C49.3598 48.5625 49.0213 48.719 48.6608 48.7917C48.3002 48.8644 47.9276 48.8513 47.5731 48.7534L44.5794 47.8219C44.5069 47.8219 44.4276 47.8607 44.4394 47.8439L43.4809 49.4436C43.4623 49.4875 43.4809 49.5989 43.5096 49.6343L45.7404 51.823C46.2383 52.3141 46.4964 53.1646 46.3598 53.7957L46.218 54.7643C46.1727 55.1286 46.0431 55.4774 45.8396 55.7829C45.636 56.0884 45.364 56.3423 45.0452 56.5244L42.2777 57.9739C42.221 58.0275 42.1846 58.0991 42.1748 58.1764C42.1764 58.195 42.2338 58.5392 42.3587 59.0421C42.4853 59.5433 42.5983 59.8741 42.6051 59.8892C42.627 59.9416 42.7367 60.0175 42.7907 60.0209L45.9328 59.9905C46.6264 59.9905 47.4026 60.4107 47.7536 60.9473Z" fill="black"/>
<path d="M55.6899 50.63C58.4811 50.63 60.7524 52.9014 60.7524 55.6925C60.7524 58.4836 58.4811 60.755 55.6899 60.755C52.8988 60.755 50.6274 58.4836 50.6274 55.6925C50.6274 52.9014 52.8988 50.63 55.6899 50.63ZM55.6899 59.0675C57.5513 59.0675 59.0649 57.5538 59.0649 55.6925C59.0649 53.8312 57.5513 52.3175 55.6899 52.3175C53.8286 52.3175 52.3149 53.8312 52.3149 55.6925C52.3149 57.5538 53.8286 59.0675 55.6899 59.0675Z" fill="black"/>
</g>
<defs>
<clipPath id="clip0_183_473">
<rect width="70.88" height="70.88" fill="white" transform="matrix(1 0 0 -1 0 70.88)"/>
</clipPath>
</defs>
</svg>
