<svg width="54" height="54" viewBox="0 0 54 54" fill="none" xmlns="http://www.w3.org/2000/svg">
<path d="M26.9998 4.84961C27.3545 4.84961 27.6952 4.99136 27.946 5.24219C28.1967 5.49298 28.3376 5.83293 28.3376 6.1875V10.4746H33.1316C33.8506 10.4747 34.5537 10.692 35.1482 11.0957L38.9666 13.6924L38.9695 13.6943C39.1212 13.7955 39.2925 13.8472 39.4744 13.8496H48.7078C49.0625 13.8496 49.4032 13.9914 49.6541 14.2422C49.9047 14.493 50.0457 14.8329 50.0457 15.1875C50.0457 15.5421 49.9047 15.882 49.6541 16.1328C49.4032 16.3836 49.0625 16.5254 48.7078 16.5254H44.6218L44.8367 17.0156L52.4109 34.2959C52.5308 34.5696 52.5554 34.8756 52.4812 35.165C52.4074 35.4526 52.2401 35.7077 52.0056 35.8896C51.7901 36.0491 51.5675 36.1975 51.3376 36.334L51.3357 36.335C50.7809 36.6686 50.2021 36.9605 49.6042 37.209H49.6033C47.6112 38.042 45.4725 38.4689 43.3132 38.4629H43.3113C41.153 38.4723 39.0146 38.0467 37.0242 37.2119H37.0232C36.4253 36.9627 35.8465 36.6694 35.2917 36.335L35.2859 36.3311L34.9509 36.125C34.8449 36.0552 34.7411 35.9822 34.6394 35.9062L34.6277 35.8975L34.6228 35.8936L34.5369 35.8213C34.3447 35.6463 34.2064 35.4184 34.1414 35.165C34.0671 34.8755 34.0927 34.5696 34.2126 34.2959L41.7908 17.0156L42.0056 16.5254H39.4763C38.757 16.5254 38.0535 16.3073 37.4587 15.9033H37.4578L33.6414 13.3076L33.6404 13.3066L33.5222 13.2393C33.4001 13.1809 33.2661 13.1505 33.1296 13.1504H28.3376V46.4746H38.783C39.1377 46.4746 39.4784 46.6164 39.7292 46.8672C39.9799 47.118 40.1208 47.4579 40.1208 47.8125C40.1208 48.1671 39.9799 48.507 39.7292 48.7578C39.4784 49.0086 39.1377 49.1504 38.783 49.1504H15.2166C14.8619 49.1503 14.522 49.0086 14.2712 48.7578C14.0205 48.507 13.8796 48.1672 13.8796 47.8125C13.8796 47.4578 14.0205 47.118 14.2712 46.8672C14.522 46.6164 14.8619 46.4747 15.2166 46.4746H25.6628V13.1504H20.8689C20.6867 13.1505 20.508 13.2045 20.3572 13.3066V13.3076L16.5408 15.9033C15.9461 16.3072 15.2433 16.5253 14.5242 16.5254H11.9949L12.2097 17.0156L19.7878 34.2959C19.9038 34.5618 19.9302 34.8584 19.863 35.1406C19.7961 35.4218 19.6398 35.6735 19.4177 35.8584C19.2471 35.997 19.0769 36.127 18.7507 36.3379L18.7498 36.3389C18.1959 36.6983 17.6159 37.0158 17.0144 37.2881H17.0134C15.0276 38.192 12.8701 38.6569 10.6882 38.6514H10.6863C8.64095 38.6565 6.61721 38.248 4.73608 37.4521L4.36108 37.2881L3.91382 37.0752C3.47082 36.8542 3.04026 36.6085 2.62476 36.3389V36.3379L2.28491 36.1074C2.17561 36.0293 2.06822 35.9484 1.96265 35.8652C1.74059 35.6778 1.58381 35.4243 1.51636 35.1416C1.44901 34.8592 1.47337 34.5622 1.58667 34.2949L1.58765 34.2959L9.16284 17.0156L9.37769 16.5254H5.29468C4.93995 16.5254 4.59922 16.3836 4.34839 16.1328C4.09775 15.882 3.95679 15.5421 3.95679 15.1875C3.95679 14.8329 4.09775 14.493 4.34839 14.2422C4.59922 13.9914 4.93995 13.8496 5.29468 13.8496H14.5242C14.7084 13.8495 14.8809 13.7965 15.0339 13.6953L15.0378 13.6924L18.8513 11.0957H18.8523C19.4459 10.6905 20.1508 10.4747 20.8708 10.4746H25.6628V6.1875C25.6628 5.83285 25.8037 5.493 26.0544 5.24219C26.3052 4.99143 26.6451 4.84969 26.9998 4.84961ZM10.3669 20.9375L4.61401 34.0547L4.48315 34.3516L4.76929 34.5039C6.58997 35.4747 8.62299 35.9795 10.6863 35.9736V35.9746C12.7504 35.9809 14.7839 35.4751 16.6052 34.5039L16.8914 34.3516L16.7615 34.0547L11.0085 20.9375L10.6873 20.207L10.3669 20.9375ZM42.9919 20.9355L37.2615 34.001L37.1267 34.3086L37.4285 34.4561C37.6184 34.5487 37.8295 34.6455 38.0613 34.7461L38.0652 34.748C39.2916 35.264 41.0815 35.7871 43.3123 35.7871V35.7861C45.3483 35.7915 47.3595 35.338 49.1951 34.457L49.4998 34.3105L49.364 34.001L43.6335 20.9355L43.3123 20.2041L42.9919 20.9355Z" fill="black" stroke="white" stroke-width="0.7"/>
</svg>
