<svg width="58" height="58" viewBox="0 0 58 58" fill="none" xmlns="http://www.w3.org/2000/svg">
<path d="M27.7918 46.5692C26.6898 46.5692 25.6772 46.2929 24.754 45.7403C23.8325 45.1893 23.0913 44.4272 22.5307 43.4541C22.3051 43.0819 22.3108 42.7017 22.5476 42.3134C22.7844 41.9252 23.1292 41.7318 23.5819 41.7334C23.8268 41.7334 24.05 41.8019 24.2513 41.9389C24.4527 42.0742 24.6219 42.2506 24.7588 42.4681C25.0827 42.9675 25.5169 43.3727 26.0614 43.6837C26.606 43.9946 27.1828 44.1501 27.7918 44.1501C28.7858 44.1501 29.6389 43.7948 30.351 43.0844C31.0631 42.3739 31.4184 41.5208 31.4168 40.5251C31.4152 39.5294 31.0599 38.6772 30.351 37.9683C29.6389 37.2562 28.7858 36.9001 27.7918 36.9001H7.2501C6.90693 36.9001 6.61935 36.7849 6.38735 36.5545C6.15535 36.3241 6.04015 36.0365 6.04176 35.6918C6.04338 35.347 6.15857 35.0594 6.38735 34.829C6.61613 34.5986 6.90371 34.4842 7.2501 34.4859H27.7918C29.4657 34.4859 30.8915 35.0747 32.0693 36.2524C33.247 37.4302 33.835 38.856 33.8334 40.5299C33.8318 42.2039 33.2438 43.6289 32.0693 44.805C30.8948 45.9811 29.4689 46.5692 27.7918 46.5692ZM7.2501 23.5166C6.90693 23.5166 6.61935 23.4014 6.38735 23.171C6.15535 22.9406 6.04015 22.6522 6.04176 22.3059C6.04338 21.9595 6.15857 21.6719 6.38735 21.4431C6.61613 21.2143 6.90371 21.0999 7.2501 21.0999H37.4584C38.7747 21.0999 39.9097 20.6239 40.8635 19.6717C41.8157 18.7179 42.2918 17.5821 42.2918 16.2642C42.2918 14.9463 41.8157 13.8121 40.8635 12.8615C39.9097 11.9094 38.7747 11.4333 37.4584 11.4333C36.5047 11.4333 35.6298 11.6846 34.8339 12.1873C34.038 12.6899 33.4476 13.3787 33.0625 14.2535C32.9352 14.4887 32.779 14.6821 32.5937 14.8335C32.4068 14.9834 32.1869 15.0583 31.9339 15.0583C31.4989 15.0583 31.1461 14.8955 30.8754 14.5701C30.6048 14.2447 30.5435 13.8789 30.6918 13.4729C31.2557 12.0906 32.149 11.0023 33.3718 10.208C34.5931 9.41374 35.9553 9.0166 37.4584 9.0166C39.4852 9.0166 41.2002 9.71824 42.6035 11.1215C44.0068 12.5248 44.7084 14.2398 44.7084 16.2666C44.7084 18.2934 44.0068 20.0084 42.6035 21.4117C41.2002 22.8134 39.4852 23.5142 37.4584 23.5142L7.2501 23.5166ZM47.6568 41.7528C47.2218 41.93 46.823 41.8873 46.4605 41.6247C46.098 41.3621 45.9168 41.0052 45.9168 40.5541C45.9168 40.2995 45.9917 40.082 46.1415 39.9016C46.2914 39.7212 46.4847 39.5665 46.7215 39.4376C47.5947 39.0542 48.2835 38.4645 48.7878 37.6686C49.292 36.8727 49.5434 35.9971 49.5418 35.0417C49.5418 33.7254 49.0657 32.5904 48.1135 31.6366C47.1597 30.6844 46.0247 30.2084 44.7084 30.2084H7.2501C6.90693 30.2084 6.61935 30.0932 6.38735 29.8628C6.15535 29.6324 6.04015 29.3448 6.04176 29C6.04338 28.6552 6.15857 28.3677 6.38735 28.1373C6.61613 27.9069 6.90371 27.7917 7.2501 27.7917H44.7084C46.7352 27.7917 48.4502 28.4933 49.8535 29.8966C51.2568 31.2999 51.9584 33.0149 51.9584 35.0417C51.9584 36.5175 51.5774 37.8571 50.8154 39.0606C50.0533 40.2641 49.002 41.1615 47.6568 41.7528Z" fill="black" stroke="black"/>
</svg>
