<svg width="58" height="58" viewBox="0 0 58 58" fill="none" xmlns="http://www.w3.org/2000/svg">
<path d="M27.7915 43.5C37.4582 43.5 45.8199 38.135 50.1216 30.2083C45.8199 22.2817 37.4582 16.9167 27.7915 16.9167C18.1249 16.9167 9.76322 22.2817 5.46155 30.2083C9.76322 38.135 18.1249 43.5 27.7915 43.5ZM27.7915 14.5C38.8116 14.5 48.3332 20.9042 52.8282 30.2083C48.3332 39.5125 38.8116 45.9167 27.7915 45.9167C16.7715 45.9167 7.24988 39.5125 2.75488 30.2083C7.24988 20.9042 16.7715 14.5 27.7915 14.5ZM27.7915 19.3333C33.8332 19.3333 38.6665 24.1667 38.6665 30.2083C38.6665 36.25 33.8332 41.0833 27.7915 41.0833C21.7499 41.0833 16.9166 36.25 16.9166 30.2083C16.9166 24.1667 21.7499 19.3333 27.7915 19.3333ZM27.7915 21.75C25.5483 21.75 23.3969 22.6411 21.8106 24.2274C20.2244 25.8136 19.3332 27.965 19.3332 30.2083C19.3332 32.4516 20.2244 34.603 21.8106 36.1893C23.3969 37.7755 25.5483 38.6667 27.7915 38.6667C30.0348 38.6667 32.1862 37.7755 33.7725 36.1893C35.3587 34.603 36.2499 32.4516 36.2499 30.2083C36.2499 27.965 35.3587 25.8136 33.7725 24.2274C32.1862 22.6411 30.0348 21.75 27.7915 21.75Z" fill="black"/>
</svg>
