<svg width="28" height="28" viewBox="0 0 28 28" fill="none" xmlns="http://www.w3.org/2000/svg">
<path d="M23.3334 11.6666C23.3334 17.4918 16.8712 23.5584 14.7012 25.4321C14.4991 25.5841 14.253 25.6663 14.0001 25.6663C13.7471 25.6663 13.5011 25.5841 13.2989 25.4321C11.1289 23.5584 4.66675 17.4918 4.66675 11.6666C4.66675 9.19123 5.65008 6.81726 7.40042 5.06692C9.15076 3.31658 11.5247 2.33325 14.0001 2.33325C16.4754 2.33325 18.8494 3.31658 20.5997 5.06692C22.3501 6.81726 23.3334 9.19123 23.3334 11.6666Z" stroke="#D6180D" stroke-width="2.33333" stroke-linecap="round" stroke-linejoin="round"/>
<path d="M14 15.1667C15.933 15.1667 17.5 13.5997 17.5 11.6667C17.5 9.73375 15.933 8.16675 14 8.16675C12.067 8.16675 10.5 9.73375 10.5 11.6667C10.5 13.5997 12.067 15.1667 14 15.1667Z" stroke="#D6180D" stroke-width="2.33333" stroke-linecap="round" stroke-linejoin="round"/>
</svg>
