<svg width="13" height="13" viewBox="0 0 13 13" fill="none" xmlns="http://www.w3.org/2000/svg">
<path d="M9.58341 1.08099C9.84881 0.8156 10.2088 0.666504 10.5841 0.666504C10.9594 0.666504 11.3194 0.8156 11.5847 1.08099C11.8501 1.34639 11.9992 1.70634 11.9992 2.08166C11.9992 2.45698 11.8501 2.81693 11.5847 3.08233L3.57808 11.0897C3.41948 11.2483 3.22343 11.3643 3.00808 11.427L1.09341 11.9857C1.03605 12.0024 0.975241 12.0034 0.917354 11.9886C0.859468 11.9737 0.806633 11.9436 0.764379 11.9014C0.722125 11.8591 0.692007 11.8063 0.677177 11.7484C0.662347 11.6905 0.66335 11.6297 0.680081 11.5723L1.23875 9.65766C1.30156 9.44255 1.41758 9.24674 1.57608 9.08833L9.58341 1.08099Z" stroke="#3D46A5" stroke-width="1.33333" stroke-linecap="round" stroke-linejoin="round"/>
</svg>
