<svg width="54" height="54" viewBox="0 0 54 54" fill="none" xmlns="http://www.w3.org/2000/svg">
<path d="M17.4375 31.1625L22.8375 36.5625M17.4375 31.1625C17.4375 31.1625 20.6258 23.193 25.164 17.6625M17.4375 31.1625C5.69475 28.2263 16.245 17.6625 25.164 17.6625M22.8375 36.5625C22.8375 36.5625 30.807 33.3742 36.3375 28.836M22.8375 36.5625C25.7737 48.303 36.3375 37.755 36.3375 28.836M25.164 17.6625C29.754 12.069 37.3207 9.5625 44.4375 9.5625C44.4375 16.6793 41.931 24.2438 36.3375 28.836M32.5125 21.2782L34.1032 19.6875M12.4178 37.296C10.2758 39.0983 9.5625 44.4487 9.5625 44.4487C9.5625 44.4487 14.8995 43.7332 16.6973 41.5867C17.7097 40.3852 17.6962 38.5402 16.569 37.4242C16.0117 36.9004 15.2822 36.5982 14.5176 36.5746C13.7531 36.551 13.0063 36.8075 12.4178 37.296Z" stroke="black" stroke-width="2" stroke-linecap="round" stroke-linejoin="round"/>
</svg>
