<svg width="54" height="54" viewBox="0 0 54 54" fill="none" xmlns="http://www.w3.org/2000/svg">
<path d="M23.2278 16.767C20.599 18.76 18.1116 20.9329 15.7835 23.2701C4.8138 34.2398 -0.740488 46.4631 3.37123 50.5787C7.48294 54.6904 19.7101 49.1323 30.6759 38.1664C33.0133 35.837 35.1862 33.3483 37.1791 30.7183" stroke="black" stroke-width="2" stroke-linecap="round" stroke-linejoin="round"/>
<path d="M37.179 30.7183C43.6474 39.3043 46.2818 47.3811 43.0881 50.5748C38.9725 54.6904 26.7493 49.1323 15.7795 38.1664C4.81755 27.1928 -0.73674 14.9734 3.37497 10.8578C6.56869 7.66796 14.6455 10.3024 23.2315 16.767" stroke="black" stroke-width="2" stroke-linecap="round" stroke-linejoin="round"/>
<path d="M30.9807 13.9243C29.7657 13.7121 29.7657 11.9726 30.9807 11.7643C33.1272 11.3924 35.1141 10.3891 36.6875 8.88233C38.2609 7.3756 39.3493 5.43397 39.8136 3.30556L39.883 2.96999C40.1453 1.77427 41.8502 1.76656 42.1202 2.95842L42.2127 3.34799C42.6969 5.46586 43.7956 7.39363 45.3711 8.88951C46.9465 10.3854 48.9286 11.3828 51.0687 11.7566C52.2876 11.9687 52.2876 13.7198 51.0687 13.9281C48.9286 14.3019 46.9465 15.2993 45.3711 16.7952C43.7956 18.2911 42.6969 20.2188 42.2127 22.3367L42.1202 22.7263C41.8502 23.922 40.1453 23.9143 39.883 22.7186L39.8059 22.383C39.3416 20.2546 38.2532 18.3129 36.6798 16.8062C35.1064 15.2995 33.1195 14.2961 30.973 13.9243M21.2993 30.7183C21.2993 31.2298 21.5025 31.7203 21.8642 32.082C22.2259 32.4437 22.7164 32.6468 23.2279 32.6468C23.7394 32.6468 24.2299 32.4437 24.5916 32.082C24.9533 31.7203 25.1565 31.2298 25.1565 30.7183C25.1565 30.2068 24.9533 29.7162 24.5916 29.3546C24.2299 28.9929 23.7394 28.7897 23.2279 28.7897C22.7164 28.7897 22.2259 28.9929 21.8642 29.3546C21.5025 29.7162 21.2993 30.2068 21.2993 30.7183Z" stroke="black" stroke-width="2" stroke-linecap="round" stroke-linejoin="round"/>
</svg>
