<svg width="12" height="15" viewBox="0 0 12 15" fill="none" xmlns="http://www.w3.org/2000/svg">
<path d="M11.3334 8.00014C11.3334 11.3335 9.00008 13.0001 6.22675 13.9668C6.08152 14.016 5.92377 14.0137 5.78008 13.9601C3.00008 13.0001 0.666748 11.3335 0.666748 8.00014V3.33347C0.666748 3.15666 0.736986 2.98709 0.86201 2.86207C0.987035 2.73704 1.1566 2.6668 1.33341 2.6668C2.66675 2.6668 4.33341 1.8668 5.49341 0.85347C5.63465 0.732803 5.81432 0.666504 6.00008 0.666504C6.18585 0.666504 6.36551 0.732803 6.50675 0.85347C7.67342 1.87347 9.33341 2.6668 10.6667 2.6668C10.8436 2.6668 11.0131 2.73704 11.1382 2.86207C11.2632 2.98709 11.3334 3.15666 11.3334 3.33347V8.00014Z" stroke="#0D0D0D" stroke-width="1.33333" stroke-linecap="round" stroke-linejoin="round"/>
</svg>
