<svg width="54" height="54" viewBox="0 0 54 54" fill="none" xmlns="http://www.w3.org/2000/svg">
<path d="M22.5 22.5C27.4706 22.5 31.5 18.4706 31.5 13.5C31.5 8.52944 27.4706 4.5 22.5 4.5C17.5294 4.5 13.5 8.52944 13.5 13.5C13.5 18.4706 17.5294 22.5 22.5 22.5Z" stroke="#0D0D0D" stroke-width="2"/>
<path d="M40.5 39.375C40.5 44.9662 40.5 49.5 22.5 49.5C4.5 49.5 4.5 44.9662 4.5 39.375C4.5 33.7838 12.5595 29.25 22.5 29.25C32.4405 29.25 40.5 33.7838 40.5 39.375Z" stroke="#0D0D0D" stroke-width="2"/>
<path d="M42.75 4.5C42.75 4.5 47.25 7.2 47.25 13.5C47.25 19.8 42.75 22.5 42.75 22.5M38.25 9C38.25 9 40.5 10.35 40.5 13.5C40.5 16.65 38.25 18 38.25 18" stroke="#0D0D0D" stroke-width="2" stroke-linecap="round"/>
</svg>
