<svg width="24" height="24" viewBox="0 0 24 24" fill="none" xmlns="http://www.w3.org/2000/svg">
<path d="M17.0115 3.34501C15.4894 2.46133 13.7601 1.99721 12 2.00001C6.477 2.00001 2 6.47701 2 12C2 17.523 6.477 22 12 22C17.523 22 22 17.523 22 12C22 10.1865 21.517 8.48501 20.673 7.01901" stroke="#0D0D0D" stroke-width="2" stroke-linecap="round" stroke-linejoin="round"/>
<path d="M15.975 8.02502C15.975 8.02502 14.281 12.5475 13.5 13.3285C13.1249 13.7036 12.6162 13.9143 12.0857 13.9143C11.5553 13.9143 11.0466 13.7036 10.6715 13.3285C10.2964 12.9534 10.0857 12.4447 10.0857 11.9143C10.0857 11.3838 10.2964 10.8751 10.6715 10.5C11.4525 9.71902 15.975 8.02502 15.975 8.02502Z" stroke="#0D0D0D" stroke-width="2" stroke-linejoin="round"/>
</svg>
