<svg width="58" height="58" viewBox="0 0 58 58" fill="none" xmlns="http://www.w3.org/2000/svg">
<path d="M31.6028 7.05178C32.4269 5.0677 35.2399 5.0677 36.064 7.05178L37.224 9.83578L40.2279 10.0775C42.3691 10.2466 43.2391 12.9219 41.6054 14.3211L39.3168 16.281L40.0177 19.2149C40.5155 21.3053 38.2414 22.9583 36.4072 21.837L33.8334 20.2661L31.2597 21.837C29.4254 22.9583 27.1513 21.3053 27.6492 19.2149L28.35 16.281L26.0614 14.3211C24.4278 12.9219 25.2953 10.249 27.4389 10.075L30.4453 9.83337L31.6028 7.05178ZM34.991 10.7638L33.8334 7.97978L32.6734 10.7638C32.5031 11.1738 32.2231 11.529 31.8641 11.7903C31.5051 12.0516 31.0811 12.209 30.6386 12.2452L27.6323 12.4869L29.9208 14.4444C30.259 14.7334 30.5108 15.1102 30.6485 15.5332C30.7863 15.9562 30.8046 16.409 30.7014 16.8417L30.0006 19.7755L32.5743 18.2047C32.9535 17.9732 33.3892 17.8508 33.8334 17.8508C34.2777 17.8508 34.7133 17.9732 35.0925 18.2047L37.6663 19.7755L36.9654 16.8417C36.8628 16.4093 36.8813 15.957 37.019 15.5345C37.1567 15.112 37.4083 14.7356 37.746 14.4468L40.0346 12.4844L37.0307 12.2428C36.5876 12.2077 36.1627 12.051 35.8029 11.7901C35.443 11.5292 35.1621 11.174 34.991 10.7638ZM19.5195 21.5518C20.3436 19.5677 23.1566 19.5677 23.9807 21.5518L27.0571 28.9468L35.0393 29.5848C37.1829 29.7564 38.0505 32.4316 36.4168 33.8309L30.3365 39.0388L32.1973 46.8301C32.6928 48.9205 30.4187 50.5735 28.5844 49.4522L21.7501 45.2786L14.9158 49.4522C13.0815 50.5735 10.8074 48.9205 11.3053 46.8301L13.1661 39.0388L7.08093 33.8333C5.44968 32.434 6.31726 29.7588 8.46085 29.5872L16.4431 28.9492L19.5195 21.5518ZM24.8265 29.8748L21.7501 22.4798L18.6761 29.8748C18.505 30.285 18.2241 30.6402 17.8643 30.9011C17.5044 31.1621 17.0795 31.3187 16.6364 31.3538L8.65418 31.9942L14.7369 37.2045C15.0747 37.4939 15.326 37.8707 15.4633 38.2937C15.6006 38.7167 15.6185 39.1694 15.5151 39.6019L13.6543 47.3908L20.491 43.2172C20.8702 42.9857 21.3059 42.8633 21.7501 42.8633C22.1943 42.8633 22.63 42.9857 23.0092 43.2172L29.8435 47.3908L27.9875 39.6019C27.8841 39.1694 27.902 38.7167 28.0393 38.2937C28.1766 37.8707 28.428 37.4939 28.7657 37.2045L34.846 31.9942L26.8638 31.3538C26.4211 31.3183 25.9967 31.1614 25.6373 30.9005C25.278 30.6396 24.9974 30.2847 24.8265 29.8748ZM47.0115 21.24C46.9142 21.0318 46.7595 20.8556 46.5656 20.7322C46.3717 20.6087 46.1466 20.5432 45.9168 20.5432C45.6869 20.5432 45.4618 20.6087 45.2679 20.7322C45.074 20.8556 44.9193 21.0318 44.822 21.24L42.7002 25.7834L38.1568 27.9052C37.9486 28.0025 37.7724 28.1572 37.649 28.3511C37.5255 28.545 37.46 28.7701 37.46 29C37.46 29.2298 37.5255 29.4549 37.649 29.6488C37.7724 29.8427 37.9486 29.9974 38.1568 30.0947L42.7002 32.2165L44.822 36.7599C44.9193 36.9681 45.074 37.1443 45.2679 37.2677C45.4618 37.3912 45.6869 37.4567 45.9168 37.4567C46.1466 37.4567 46.3717 37.3912 46.5656 37.2677C46.7595 37.1443 46.9142 36.9681 47.0115 36.7599L49.1334 32.2165L53.6767 30.0947C53.8849 29.9974 54.0611 29.8427 54.1846 29.6488C54.308 29.4549 54.3736 29.2298 54.3736 29C54.3736 28.7701 54.308 28.545 54.1846 28.3511C54.0611 28.1572 53.8849 28.0025 53.6767 27.9052L49.1334 25.7834L47.0115 21.24ZM44.706 27.2044L45.9168 24.6065L47.1299 27.2044C47.2494 27.4616 47.4556 27.6687 47.7123 27.7892L50.3103 29L47.7123 30.2131C47.456 30.3331 47.2499 30.5392 47.1299 30.7955L45.9168 33.3934L44.7036 30.7955C44.5841 30.5383 44.3779 30.3312 44.1212 30.2107L41.5233 29L44.1212 27.7868C44.3775 27.6668 44.5837 27.4607 44.7036 27.2044" fill="black"/>
</svg>
