<svg width="58" height="58" viewBox="0 0 58 58" fill="none" xmlns="http://www.w3.org/2000/svg">
<path d="M44.0389 15.0777C39.5592 14.3957 34.9798 14.8597 30.7279 16.4262L29.8966 16.7452C24.6172 18.8857 18.858 19.5619 13.2264 18.7027C10.8049 18.3281 8.37616 17.7602 6.16974 16.663C5.61898 16.3876 5.19413 15.9123 4.98196 15.3342C4.76979 14.7561 4.7863 14.1188 5.02813 13.5525C5.26996 12.9862 5.71886 12.5335 6.28316 12.287C6.84745 12.0405 7.48458 12.0187 8.06441 12.226L8.32299 12.3348C10.0654 13.183 12.0616 13.6325 13.9611 13.9249C18.4412 14.6054 23.0206 14.1398 27.2721 12.5716L28.1034 12.2574C33.3828 10.117 39.1419 9.44069 44.7736 10.2999C47.1588 10.6673 49.6504 11.2545 51.8302 12.3372C52.1144 12.4789 52.3678 12.6753 52.576 12.9151C52.7842 13.1548 52.9431 13.4332 53.0437 13.7344C53.1442 14.0356 53.1844 14.3537 53.162 14.6704C53.1395 14.9871 53.0549 15.2963 52.9129 15.5804C52.6219 16.1484 52.1199 16.5798 51.5146 16.7822C50.9093 16.9846 50.2487 16.9418 49.6746 16.663C47.9152 15.8365 45.9481 15.3701 44.0389 15.0777ZM44.0389 29.5777C39.5592 28.8957 34.9798 29.3597 30.7279 30.9262L29.8966 31.2452C24.6172 33.3857 18.858 34.0619 13.2264 33.2027C10.8049 32.8281 8.37616 32.2602 6.16974 31.163C5.61898 30.8876 5.19413 30.4123 4.98196 29.8342C4.76979 29.2561 4.7863 28.6188 5.02813 28.0525C5.26996 27.4862 5.71886 27.0335 6.28316 26.787C6.84745 26.5405 7.48458 26.5187 8.06441 26.726L8.32299 26.8348C10.0654 27.683 12.0616 28.1325 13.9611 28.4249C18.4412 29.1054 23.0206 28.6398 27.2721 27.0716L28.1034 26.7574C33.3828 24.617 39.1419 23.9407 44.7736 24.7999C47.1588 25.1673 49.6504 25.7545 51.8302 26.8372C52.1144 26.9789 52.3678 27.1753 52.576 27.4151C52.7842 27.6548 52.9431 27.9332 53.0437 28.2344C53.1442 28.5356 53.1844 28.8537 53.162 29.1704C53.1395 29.4871 53.0549 29.7963 52.9129 30.0804C52.6219 30.6484 52.1199 31.0798 51.5146 31.2822C50.9093 31.4846 50.2487 31.4418 49.6746 31.163C47.9152 30.3365 45.9481 29.8701 44.0389 29.5777ZM29.0121 46.0835L29.8966 45.7452C35.4573 43.5219 40.4453 43.5219 44.0389 44.0777C45.9481 44.3701 47.9152 44.8365 49.6722 45.663C50.2463 45.9418 50.9068 45.9846 51.5122 45.7822C52.1175 45.5798 52.6194 45.1484 52.9105 44.5804C53.0525 44.2963 53.1371 43.9871 53.1596 43.6704C53.182 43.3537 53.1418 43.0356 53.0412 42.7344C52.9407 42.4332 52.7818 42.1548 52.5736 41.9151C52.3654 41.6753 52.112 41.4789 51.8278 41.3372C49.6504 40.2545 47.1588 39.6673 44.7736 39.2999C39.4596 38.4908 34.027 39.048 28.9879 40.9191L28.1034 41.2574C23.6256 43.0772 18.7393 43.6534 13.9611 42.9249C12.3322 42.6736 10.6357 42.3087 9.08425 41.6755L8.32299 41.3372C7.75228 41.075 7.10193 41.0454 6.50971 41.2545C5.9175 41.4635 5.42994 41.895 5.15033 42.4573C4.87072 43.0197 4.82102 43.6688 5.01175 44.2672C5.20249 44.8656 5.61868 45.3662 6.17216 45.663C8.37616 46.7626 10.8049 47.3305 13.2264 47.7003C17.2937 48.3286 22.8447 48.3528 29.0121 46.0835Z" fill="black"/>
</svg>
